<svg width="192" height="40" viewBox="0 0 192 40" fill="none" xmlns="http://www.w3.org/2000/svg">
<path fill-rule="evenodd" clip-rule="evenodd" d="M19.9373 6.84517C19.9762 6.82256 20.0242 6.82256 20.0631 6.84517L33.7209 14.7922C33.7594 14.8145 33.7831 14.8557 33.7831 14.9002V33.8893C33.7831 33.9583 33.7271 34.0143 33.6581 34.0143H21.2502V22C21.2502 19.8599 19.5153 18.125 17.3752 18.125H6.21729V14.9002C6.21729 14.8557 6.24095 14.8145 6.27942 14.7922L19.9373 6.84517ZM21.949 3.60392C20.7443 2.90297 19.256 2.90297 18.0514 3.60392L4.39347 11.5509C3.20092 12.2448 2.46729 13.5205 2.46729 14.9002V20C2.46729 20.4793 2.65085 20.9404 2.98026 21.2886L18.0132 37.1779C18.3673 37.5522 18.8599 37.7643 19.3752 37.7643H33.6581C35.7982 37.7643 37.5331 36.0294 37.5331 33.8893V14.9002C37.5331 13.5205 36.7994 12.2448 35.6069 11.5509L21.949 3.60392Z" fill="#172023"/>
<path d="M53.925 23.175V20.625H57.75C59.0667 20.625 60.05 20.3667 60.7 19.85C61.3667 19.3333 61.7 18.475 61.7 17.275C61.7 16.1917 61.3917 15.375 60.775 14.825C60.175 14.275 59.2333 14 57.95 14H53.925V11.5H58.05C59.1167 11.5 60.0667 11.625 60.9 11.875C61.75 12.125 62.475 12.4917 63.075 12.975C63.675 13.4583 64.1333 14.0667 64.45 14.8C64.7667 15.5333 64.925 16.3833 64.925 17.35C64.925 18.6167 64.6333 19.6833 64.05 20.55C63.4833 21.4167 62.6333 22.075 61.5 22.525C60.3833 22.9583 59 23.175 57.35 23.175H53.925ZM51.825 28V11.5H55V28H51.825ZM66.8244 28V21.425V14.925H69.4994L69.4244 19.575H69.8494C69.9827 18.4583 70.2077 17.5417 70.5244 16.825C70.8411 16.0917 71.2744 15.5417 71.8244 15.175C72.3911 14.8083 73.0744 14.625 73.8744 14.625C74.0577 14.625 74.2494 14.6417 74.4494 14.675C74.6494 14.6917 74.8744 14.7417 75.1244 14.825L74.9994 18.175C74.7327 18.0583 74.4577 17.975 74.1744 17.925C73.8911 17.875 73.6327 17.85 73.3994 17.85C72.7494 17.85 72.1911 18.025 71.7244 18.375C71.2577 18.7083 70.8827 19.1917 70.5994 19.825C70.3161 20.4583 70.1077 21.2083 69.9744 22.075V28H66.8244ZM82.3789 28.325C81.0956 28.325 79.9622 28.0667 78.9789 27.55C78.0122 27.0167 77.2456 26.2417 76.6789 25.225C76.1289 24.2083 75.8539 22.9417 75.8539 21.425C75.8539 19.8917 76.1372 18.625 76.7039 17.625C77.2872 16.6083 78.0622 15.85 79.0289 15.35C80.0122 14.85 81.1289 14.6 82.3789 14.6C83.6456 14.6 84.7706 14.8583 85.7539 15.375C86.7372 15.8917 87.5039 16.6667 88.0539 17.7C88.6206 18.7167 88.9039 19.9833 88.9039 21.5C88.9039 23.0333 88.6206 24.3083 88.0539 25.325C87.4872 26.3417 86.7039 27.1 85.7039 27.6C84.7206 28.0833 83.6122 28.325 82.3789 28.325ZM82.5039 25.925C83.1872 25.925 83.7706 25.7667 84.2539 25.45C84.7372 25.1167 85.1039 24.625 85.3539 23.975C85.6039 23.325 85.7289 22.55 85.7289 21.65C85.7289 20.7 85.5956 19.8917 85.3289 19.225C85.0622 18.5417 84.6706 18.0167 84.1539 17.65C83.6539 17.2833 83.0372 17.1 82.3039 17.1C81.6206 17.1 81.0289 17.2667 80.5289 17.6C80.0456 17.9167 79.6789 18.4 79.4289 19.05C79.1789 19.6833 79.0539 20.4583 79.0539 21.375C79.0539 22.8417 79.3539 23.9667 79.9539 24.75C80.5706 25.5333 81.4206 25.925 82.5039 25.925ZM91.0686 32.075V21.375V14.925H93.7436L93.6936 18.55L94.0936 18.575C94.2602 17.725 94.5269 17.0083 94.8936 16.425C95.2769 15.825 95.7602 15.375 96.3436 15.075C96.9436 14.7583 97.6352 14.6 98.4186 14.6C99.5686 14.6 100.544 14.8833 101.344 15.45C102.16 16.0167 102.777 16.8167 103.194 17.85C103.627 18.8833 103.844 20.1 103.844 21.5C103.844 22.85 103.644 24.0417 103.244 25.075C102.844 26.0917 102.252 26.8917 101.469 27.475C100.685 28.0417 99.7269 28.325 98.5936 28.325C97.7436 28.325 97.0269 28.1583 96.4436 27.825C95.8602 27.4917 95.3852 27.025 95.0186 26.425C94.6519 25.8083 94.3519 25.1083 94.1186 24.325H93.6936C93.7936 24.7917 93.8769 25.2667 93.9436 25.75C94.0269 26.2333 94.0936 26.7083 94.1436 27.175C94.1936 27.6417 94.2186 28.0833 94.2186 28.5V32.075H91.0686ZM97.5686 25.75C98.2019 25.75 98.7352 25.575 99.1686 25.225C99.6186 24.8583 99.9602 24.3583 100.194 23.725C100.427 23.075 100.544 22.3333 100.544 21.5C100.544 20.6333 100.419 19.8917 100.169 19.275C99.9352 18.6417 99.5936 18.15 99.1436 17.8C98.6936 17.45 98.1519 17.275 97.5186 17.275C96.9686 17.275 96.4852 17.4 96.0686 17.65C95.6686 17.8833 95.3269 18.2 95.0436 18.6C94.7769 19 94.5686 19.4417 94.4186 19.925C94.2852 20.3917 94.2186 20.85 94.2186 21.3V21.7C94.2186 22.0333 94.2602 22.3833 94.3436 22.75C94.4436 23.1167 94.5852 23.4833 94.7686 23.85C94.9519 24.2 95.1769 24.5167 95.4436 24.8C95.7102 25.0833 96.0186 25.3167 96.3686 25.5C96.7352 25.6667 97.1352 25.75 97.5686 25.75ZM111.996 28.325C110.93 28.325 109.98 28.175 109.146 27.875C108.33 27.575 107.638 27.1333 107.071 26.55C106.521 25.9667 106.096 25.2667 105.796 24.45C105.513 23.6333 105.371 22.7167 105.371 21.7C105.371 20.6833 105.513 19.7417 105.796 18.875C106.08 18.0083 106.488 17.2583 107.021 16.625C107.571 15.975 108.246 15.475 109.046 15.125C109.846 14.775 110.755 14.6 111.771 14.6C112.721 14.6 113.571 14.7583 114.321 15.075C115.088 15.3917 115.721 15.8667 116.221 16.5C116.738 17.1333 117.113 17.9083 117.346 18.825C117.58 19.7417 117.663 20.8 117.596 22L107.421 22.075V20.25L115.671 20.175L114.646 21.2C114.746 20.2667 114.68 19.5 114.446 18.9C114.213 18.3 113.863 17.85 113.396 17.55C112.93 17.25 112.388 17.1 111.771 17.1C111.088 17.1 110.496 17.2833 109.996 17.65C109.496 18.0167 109.105 18.5333 108.821 19.2C108.555 19.8667 108.421 20.675 108.421 21.625C108.421 23.075 108.738 24.1583 109.371 24.875C110.005 25.5917 110.88 25.95 111.996 25.95C112.496 25.95 112.921 25.8917 113.271 25.775C113.621 25.6417 113.905 25.4667 114.121 25.25C114.355 25.0333 114.538 24.7917 114.671 24.525C114.805 24.2417 114.905 23.95 114.971 23.65L117.746 24.225C117.63 24.8417 117.43 25.4 117.146 25.9C116.863 26.4 116.48 26.8333 115.996 27.2C115.53 27.5667 114.963 27.8417 114.296 28.025C113.646 28.225 112.88 28.325 111.996 28.325ZM119.805 28V21.425V14.925H122.48L122.405 19.575H122.83C122.963 18.4583 123.188 17.5417 123.505 16.825C123.822 16.0917 124.255 15.5417 124.805 15.175C125.372 14.8083 126.055 14.625 126.855 14.625C127.038 14.625 127.23 14.6417 127.43 14.675C127.63 14.6917 127.855 14.7417 128.105 14.825L127.98 18.175C127.713 18.0583 127.438 17.975 127.155 17.925C126.872 17.875 126.613 17.85 126.38 17.85C125.73 17.85 125.172 18.025 124.705 18.375C124.238 18.7083 123.863 19.1917 123.58 19.825C123.297 20.4583 123.088 21.2083 122.955 22.075V28H119.805ZM134.818 28.3C133.451 28.3 132.435 27.9333 131.768 27.2C131.118 26.45 130.793 25.3 130.793 23.75V17.45H128.918L128.968 15H130.118C130.635 14.9833 131.018 14.8833 131.268 14.7C131.518 14.5167 131.668 14.2 131.718 13.75L131.993 12.025H133.818V14.925H137.243V17.55H133.818V23.6C133.818 24.2333 133.968 24.6917 134.268 24.975C134.568 25.2417 135.001 25.375 135.568 25.375C135.868 25.375 136.168 25.3417 136.468 25.275C136.785 25.1917 137.068 25.0667 137.318 24.9V27.875C136.835 28.0417 136.376 28.15 135.943 28.2C135.526 28.2667 135.151 28.3 134.818 28.3ZM144.064 32.4C143.414 32.4 142.747 32.3333 142.064 32.2C141.397 32.0667 140.772 31.8583 140.189 31.575C139.606 31.3083 139.114 30.9667 138.714 30.55L139.764 27.9C140.247 28.45 140.864 28.8667 141.614 29.15C142.381 29.4333 143.156 29.575 143.939 29.575C144.856 29.575 145.614 29.3833 146.214 29C146.814 28.6167 147.264 28.0417 147.564 27.275C147.881 26.5083 148.047 25.55 148.064 24.4L148.239 21.975H147.764C147.614 23.1417 147.347 24.0833 146.964 24.8C146.581 25.5 146.097 26.0167 145.514 26.35C144.931 26.6833 144.256 26.85 143.489 26.85C142.539 26.85 141.739 26.6083 141.089 26.125C140.456 25.6417 139.972 24.925 139.639 23.975C139.322 23.025 139.164 21.85 139.164 20.45V14.925H142.314V19.725C142.314 21.275 142.506 22.4083 142.889 23.125C143.272 23.825 143.856 24.175 144.639 24.175C145.072 24.175 145.456 24.0667 145.789 23.85C146.139 23.6333 146.431 23.3083 146.664 22.875C146.914 22.4417 147.106 21.9083 147.239 21.275C147.389 20.6417 147.472 19.9167 147.489 19.1V14.925H150.664V24.525C150.664 25.525 150.572 26.4417 150.389 27.275C150.222 28.0917 149.964 28.8167 149.614 29.45C149.281 30.0833 148.847 30.6167 148.314 31.05C147.797 31.5 147.189 31.8333 146.489 32.05C145.789 32.2833 144.981 32.4 144.064 32.4ZM155.687 23.175V20.625H159.512C160.828 20.625 161.812 20.3667 162.462 19.85C163.128 19.3333 163.462 18.475 163.462 17.275C163.462 16.1917 163.153 15.375 162.537 14.825C161.937 14.275 160.995 14 159.712 14H155.687V11.5H159.812C160.878 11.5 161.828 11.625 162.662 11.875C163.512 12.125 164.237 12.4917 164.837 12.975C165.437 13.4583 165.895 14.0667 166.212 14.8C166.528 15.5333 166.687 16.3833 166.687 17.35C166.687 18.6167 166.395 19.6833 165.812 20.55C165.245 21.4167 164.395 22.075 163.262 22.525C162.145 22.9583 160.762 23.175 159.112 23.175H155.687ZM153.587 28V11.5H156.762V28H153.587ZM168.586 28V21.425V14.925H171.261L171.186 19.575H171.611C171.744 18.4583 171.969 17.5417 172.286 16.825C172.603 16.0917 173.036 15.5417 173.586 15.175C174.153 14.8083 174.836 14.625 175.636 14.625C175.819 14.625 176.011 14.6417 176.211 14.675C176.411 14.6917 176.636 14.7417 176.886 14.825L176.761 18.175C176.494 18.0583 176.219 17.975 175.936 17.925C175.653 17.875 175.394 17.85 175.161 17.85C174.511 17.85 173.953 18.025 173.486 18.375C173.019 18.7083 172.644 19.1917 172.361 19.825C172.078 20.4583 171.869 21.2083 171.736 22.075V28H168.586ZM184.141 28.325C182.857 28.325 181.724 28.0667 180.741 27.55C179.774 27.0167 179.007 26.2417 178.441 25.225C177.891 24.2083 177.616 22.9417 177.616 21.425C177.616 19.8917 177.899 18.625 178.466 17.625C179.049 16.6083 179.824 15.85 180.791 15.35C181.774 14.85 182.891 14.6 184.141 14.6C185.407 14.6 186.532 14.8583 187.516 15.375C188.499 15.8917 189.266 16.6667 189.816 17.7C190.382 18.7167 190.666 19.9833 190.666 21.5C190.666 23.0333 190.382 24.3083 189.816 25.325C189.249 26.3417 188.466 27.1 187.466 27.6C186.482 28.0833 185.374 28.325 184.141 28.325ZM184.266 25.925C184.949 25.925 185.532 25.7667 186.016 25.45C186.499 25.1167 186.866 24.625 187.116 23.975C187.366 23.325 187.491 22.55 187.491 21.65C187.491 20.7 187.357 19.8917 187.091 19.225C186.824 18.5417 186.432 18.0167 185.916 17.65C185.416 17.2833 184.799 17.1 184.066 17.1C183.382 17.1 182.791 17.2667 182.291 17.6C181.807 17.9167 181.441 18.4 181.191 19.05C180.941 19.6833 180.816 20.4583 180.816 21.375C180.816 22.8417 181.116 23.9667 181.716 24.75C182.332 25.5333 183.182 25.925 184.266 25.925Z" fill="#172023"/>
</svg>
